<?xml version="1.0" encoding="UTF-8"?>
<svg onload="init(evt);" viewBox="0 0 200 200" xmlns="http://www.w3.org/2000/svg" xmlns:xlink="http://www.w3.org/1999/xlink">
 <defs>
  <linearGradient id="b">
   <stop stop-color="#888ea0" offset="0"/>
   <stop stop-color="#505870" offset="1"/>
  </linearGradient>
  <linearGradient id="a">
   <stop stop-color="#dbdee4" offset="0"/>
   <stop stop-color="#5d6f7b" offset="1"/>
  </linearGradient>
  <linearGradient id="h" x1="234.03" x2="134.04" y1="212.3" y2="124.87" gradientUnits="userSpaceOnUse">
   <stop stop-color="#767e8f" offset="0"/>
   <stop stop-color="#767e8f" stop-opacity="0" offset="1"/>
  </linearGradient>
  <linearGradient id="o" x1="50.469" x2="135.67" y1="179.22" y2="247.69" gradientUnits="userSpaceOnUse" xlink:href="#a"/>
  <linearGradient id="n" x1="186.74" x2="242.19" y1="78.424" y2="111.76" gradientUnits="userSpaceOnUse" xlink:href="#a"/>
  <linearGradient id="m" x1="85.051" x2="194.43" y1="95.063" y2="182.96" gradientUnits="userSpaceOnUse" xlink:href="#a"/>
  <linearGradient id="l" x1="63.06" x2="127.05" y1="189.86" y2="241.28" gradientUnits="userSpaceOnUse" xlink:href="#a"/>
  <linearGradient id="k" x1="37.884" x2="254.66" y1="55.637" y2="251.8" gradientUnits="userSpaceOnUse" xlink:href="#a"/>
  <linearGradient id="j" x1="413.63" x2="401.35" y1="473.31" y2="461.3" gradientUnits="userSpaceOnUse" xlink:href="#a"/>
  <linearGradient id="i" x1="414.22" x2="403.8" y1="471.89" y2="462.43" gradientUnits="userSpaceOnUse" xlink:href="#a"/>
  <linearGradient id="g" x1="413.32" x2="404.14" y1="471.81" y2="463.16" gradientUnits="userSpaceOnUse" xlink:href="#a"/>
  <linearGradient id="f" x1="403.12" x2="413.85" y1="462.89" y2="474.67" gradientUnits="userSpaceOnUse" xlink:href="#b"/>
  <linearGradient id="e" x1="413.09" x2="400.03" y1="472.63" y2="458.34" gradientUnits="userSpaceOnUse" xlink:href="#b"/>
  <linearGradient id="d" x2="0" y1="459.61" y2="477.7" gradientUnits="userSpaceOnUse" xlink:href="#b"/>
  <radialGradient id="c" cx="336.1" cy="379.74" r="166.05" gradientTransform="matrix(1.5557 -6.0375e-8 5.5528e-8 1.4306 -456.22 -485.85)" gradientUnits="userSpaceOnUse">
   <stop stop-color="#e8ebf2" offset="0"/>
   <stop stop-color="#e8ebf2" stop-opacity="0" offset="1"/>
  </radialGradient>
 </defs>
 <script type="text/ecmascript">function init(evt) {
		setInterval ( "updateHands()", 1000 );
		updateHands();
	}
	function updateHands() {
		var d = new Date();
		var hour_deg = (30.0 * (d.getHours() % 12));
		var minute_deg = (0.1 * ((d.getMinutes()*60)+d.getSeconds()));
		var hour_hand = document.getElementById('hourHand');
		var minute_hand = document.getElementById('minuteHand');
		hour_hand.setAttribute('transform', 'rotate('+hour_deg+',200, 200) translate(200,200)');
		minute_hand.setAttribute('transform', 'rotate('+minute_deg+',200, 200) translate(200,200)');
	}</script>
 <g transform="scale(.5)">
  <g transform="matrix(1.3333 0 0 1.3333 -1.3401e-6 -3.0506e-5)">
   <path d="m101.06 167.02c-0.10723 6.4e-4 -0.22204 0.00566-0.32983 0.01832-1.5335 0.18008-2.6985 1.5161-2.6752 3.0598v2.4002c-2.3359 0.1408-4.6311 0.44243-6.8713 0.89778l-0.623-2.3269c-0.35075-1.4234-1.6709-2.3754-3.1333-2.2719-0.91161 0.06324-1.7495 0.53528-2.2721 1.2825s-0.67467 1.6877-0.42144 2.5651l0.623 2.3269c-2.2004 0.73952-4.3266 1.6293-6.3766 2.6567l-1.2094-2.107c-0.55907-0.99268-1.6287-1.5906-2.7668-1.539-1.0634 0.04692-2.0255 0.66482-2.5286 1.594s-0.48583 2.0541 0.05498 2.9682l1.2277 2.107c-1.9265 1.2755-3.7678 2.6678-5.4971 4.1958l-1.7224-1.7223c-0.57032-0.58174-1.3475-0.8998-2.1622-0.89778-1.2229 0.00731-2.344 0.74673-2.8035 1.8872s-0.1616 2.445 0.71462 3.298l1.7041 1.7223c-1.528 1.7256-2.9365 3.5528-4.2144 5.4783l-2.0889-1.2092c-0.52293-0.31495-1.1313-0.45741-1.7407-0.4214-1.3248 0.09292-2.4526 1.0454-2.7485 2.3452s0.31206 2.6408 1.4659 3.298l2.0889 1.2093c-1.0298 2.0557-1.917 4.1896-2.6569 6.3944l-2.3271-0.62295c-0.29552-0.07927-0.61046-0.12241-0.91618-0.10992-1.4936 0.056-2.7315 1.208-2.8951 2.6933s0.81237 2.8826 2.2538 3.2613l2.3088 0.60462c-0.45539 2.24-0.75703 4.535-0.89785 6.8708h-2.6752c-1.6596 0.08298-2.9598 1.5102-2.8768 3.1697 0.08235 1.6469 1.4899 2.9381 3.1333 2.8766h2.4187c0.14088 2.3267 0.4267 4.62 0.87953 6.8524l-2.3088 0.60463c-7e-5 0.00611-7e-5 0.01222 0 0.01833-1.6046 0.42877-2.5544 2.0966-2.1255 3.701s2.0967 2.5542 3.7014 2.1254l2.3088-0.60463c0.74339 2.2084 1.6429 4.3395 2.6752 6.3944l-2.0889 1.1909c-1.4386 0.82992-1.9477 2.684-1.1177 4.1225s2.6842 1.9476 4.1228 1.1176l2.1255-1.2276c1.2704 1.9206 2.6538 3.7686 4.1778 5.4966l-1.6674 1.6673-0.03665 0.03665c-0.80431 0.7473-1.1414 1.888-0.87953 2.9498 0.26662 1.0809 1.1123 1.9422 2.1988 2.217 1.0709 0.27081 2.1848-0.0978 2.9318-0.89778l0.01832 0.01832 0.01832-0.03664 1.7041-1.6856c1.7251 1.5268 3.5538 2.9368 5.4787 4.2141l-1.2094 2.0887c-7e-5 0.0061-7e-5 0.01221 0 0.01831-0.82998 1.4385-0.32089 3.2926 1.1177 4.1225s3.2928 0.32087 4.1228-1.1176l1.2094-2.0887c2.0439 1.0253 4.1634 1.9173 6.3583 2.6567l-0.623 2.3452c-0.42882 1.6045 0.53924 3.254 2.1438 3.6827s3.2725-0.52089 3.7014-2.1254l0.623-2.3452c2.238 0.45747 4.5329 0.77265 6.8713 0.91612v2.4002c-0.01549 1.0952 0.56789 2.0929 1.5025 2.6384 0.93521 0.54581 2.1065 0.54577 3.0417 0 0.93467-0.54547 1.518-1.5615 1.5025-2.6567v-2.3819c2.3388-0.14356 4.6328-0.4583 6.8713-0.91612l0.60467 2.272 0.01833 0.07328h0.01832c0.22678 1.0844 1.0035 1.9725 2.0706 2.2903 1.0948 0.32597 2.2828-0.00179 3.06-0.8245 0.76635-0.81123 1.0014-1.9806 0.64131-3.0415h0.03665l-0.60467-2.3086c2.2027-0.74227 4.3266-1.6454 6.3766-2.675l1.191 2.0887c0.82997 1.4385 2.6842 1.9476 4.1228 1.1176s1.9477-2.684 1.1177-4.1225l-1.2277-2.1254c1.9237-1.2746 3.7694-2.6696 5.4971-4.1958l1.7041 1.6856 0.01833 0.03664 0.01832-0.01832c0.74691 0.79998 1.8609 1.1686 2.9318 0.89778 1.0865-0.27475 1.9322-1.136 2.1988-2.217 0.26191-1.0619-0.07522-2.2026-0.87953-2.9498l-0.03665-0.03665-1.6674-1.6673c1.5238-1.728 2.9074-3.5761 4.1778-5.4966l2.1255 1.2276c1.4386 0.8299 3.2928 0.32086 4.1228-1.1176s0.32089-3.2926-1.1177-4.1225l-2.0889-1.2092c1.0319-2.0548 1.9321-4.1854 2.6752-6.3944l2.3088 0.62294c1.6046 0.4288 3.2725-0.52088 3.7014-2.1254s-0.52093-3.2723-2.1255-3.701c7e-5 -0.00611 7e-5 -0.01222 0-0.01833l-2.3088-0.60463c0.45285-2.2325 0.73866-4.5256 0.87953-6.8524h2.4004c1.0953 0.01549 2.0931-0.56783 2.6386-1.5024 0.54583-0.93511 0.54583-2.1063 0-3.0414-0.54551-0.93459-1.5616-1.5179-2.6569-1.5024h-2.3821c-0.14026-2.3344-0.42482-4.631-0.87953-6.8708l2.3088-0.60462c1.5609-0.36122 2.5343-1.9053 2.2538-3.4812-0.24608-1.3827-1.4062-2.3964-2.7668-2.4918-0.21632-0.01518-0.41521-0.00315-0.58635 0.01832s-0.32989 0.06209-0.49473 0.10992l-2.2904 0.62295c-0.74327-2.2082-1.6433-4.3398-2.6752-6.3944l2.1072-1.2093c1.2092-0.69203 1.7885-2.1376 1.3926-3.4812s-1.6646-2.2363-3.06-2.162h-0.01832c-0.48119 0.03222-0.94307 0.17219-1.356 0.4214l-2.0889 1.2092c-1.2779-1.9254-2.6865-3.7528-4.2144-5.4783l1.7224-1.7223c0.89234-0.86777 1.1444-2.2054 0.65965-3.3529s-1.6185-1.8666-2.8585-1.8322c-0.77969 0.02444-1.5249 0.35872-2.0706 0.91611l-1.7224 1.7039c-1.7281-1.5266-3.5727-2.9209-5.4971-4.1958l1.2277-2.1254c0.58314-0.97737 0.54618-2.1787-0.05498-3.1331s-1.6858-1.5147-2.8218-1.4108c-0.99402 0.08957-1.877 0.66781-2.3637 1.539l-1.2094 2.107c-2.055-1.0318-4.1857-1.9319-6.3949-2.675l0.623-2.3086c0.26842-0.93473 0.07661-1.943-0.53138-2.7117s-1.5436-1.1815-2.5103-1.136c-1.324 0.07177-2.4666 1.0032-2.7852 2.2902l-0.60467 2.3086c-2.2407-0.4557-4.5351-0.7569-6.8713-0.89778v-2.4185c0.01322-0.87766-0.36376-1.6904-1.0078-2.2719-0.56352-0.50881-1.2833-0.79238-2.0339-0.78784zm0.01832 10.847c24.451 5e-5 44.27 19.638 44.27 44.083s-19.823 44.266-44.27 44.266-44.27-19.821-44.27-44.266 19.819-44.083 44.27-44.083z" fill="url(#o)" stroke="#373c43" stroke-linecap="round" stroke-linejoin="round" stroke-width=".47042"/>
   <path d="m220.70742,65.25446c-1.05021.12331-1.82668,1.04544-1.81076,2.10265v.9637c-1.01747.07579-2.02324.19523-3.0082.37965l-.26285-.93451c-.2403-.97523-1.13006-1.6187-2.13202-1.54779-.62599.04343-1.21864.36356-1.57711.87611s-.46589,1.1791-.29206,1.78141l.23364.9053c-.94625.33477-1.85041.73618-2.74534,1.16814l-.4965-.8469c-.38349-.68102-1.11756-1.08671-1.89837-1.05133-.73086.03225-1.3787.44441-1.72315,1.08053s-.34204,1.41673.02922,2.04425l.46728.81769c-.83245.56758-1.62901,1.18444-2.39487,1.83982l-.67173-.67168c-.39146-.39934-.93027-.61467-1.4895-.61328-.838.00501-1.61173.5011-1.92757,1.28496s-.10395,1.69338.49649,2.27787l.64253.67168c-.65303.76045-1.24339,1.56638-1.81076,2.39468l-.84697-.46725c-.359-.21625-.74986-.31676-1.16823-.29203h-.02921c-.90785.06368-1.66592.71361-1.86917,1.60619s.20241,1.82758.993,2.27787l.84697.46726c-.43407.90029-.83282,1.8234-1.16823,2.77433l-.93459-.23363c-.20284-.05441-.40342-.06698-.61332-.0584-1.02391.03838-1.8738.82166-1.98599,1.83981s.53215,1.96027 1.5187,2.21946l.93459.26283c-.18445.98489-.30388,1.99057-.37968,3.00796h-.93458-.05842-.14602c-1.1356.05677-2.04278,1.02558-1.986,2.16106 .0556,1.11233 1.02592,1.97456 2.13202,1.95663v.0292h.05842 .93458c.07624,1.007.19709,2.00322.37968,2.97876l-.93459.26283c-1.09802.29344-1.75373,1.44276-1.46029,2.5407s1.44287,1.7536 2.5409,1.46018l.93459-.23363c.33778.9524.73268,1.87525 1.16823,2.77433l-.84697.46725c-.98448.5679-1.3273,1.87757-.75935,2.86195s1.84851,1.32718 2.83296.75929l.84697-.49646c.56712.83373 1.18308,1.6254 1.83996,2.39469l-.67173.64247-.02921.02921c-.54916.51338-.76289,1.2902-.58411,2.01503 .18269.74074.77151,1.32964 1.5187,1.51858 .73163.185 1.50391-.04319 2.0152-.58406l.02921-.02921 .64252-.64248c.76491.65662 1.56128,1.26962 2.39487,1.83982l-.46728.8177c-.56793.98438-.22513,2.26484.75934,2.83274s2.26501.22512 2.83296-.75929l.4965-.81769c.89124.43081 1.80228.80426 2.74534,1.13893l-.23364.93451c-.29344,1.09795.36226,2.24729 1.46029,2.5407s2.24746-.36224 2.5409-1.46017l.26285-.93451c.98386.18623 1.9887.33101 3.0082.40885v.96371c-.01066.75375.38321,1.4085 1.0222,1.78142s1.43407.37325 2.07361,0 1.06207-1.05688 1.05141-1.81062v-.93451c1.01918-.07891 2.02457-.22159 3.00819-.40885l.20444.8761 .02921.05841c.15858.73952.70164,1.33059 1.43108,1.54778 .75205.22392 1.57158.00744 2.10282-.55486 .52-.55041.67572-1.34959.43808-2.07345h.02921l-.02921-.0584-.20443-.84691c.95248-.33775 1.8754-.73263 2.77454-1.16813l.4673.81769h.0292c.56795.9844 1.84851,1.32721 2.83296.75929s1.32731-1.84833.75935-2.83274l-.49649-.8469c.83156-.56801 1.62944-1.18417 2.39487-1.83982l.67174.67168 .0292.02921c.51126.54091 1.28355.76908 2.01519.58406 .74717-.18894 1.3068-.77785 1.4895-1.51858 .17875-.7248-.03493-1.50165-.58411-2.01503l-.02921-.02921-.64253-.64247c.65011-.76227 1.24869-1.56923 1.81076-2.39469l.84697.49646c.98444.56792 2.265.22508 2.83296-.75929s.22509-2.29403-.75935-2.86195l-.81776-.46725c.43543-.8989.83041-1.82166 1.16822-2.77433l.90539.23363c1.09802.29341 2.24746-.36223 2.5409-1.46018s-.36227-2.24729-1.46029-2.5407l-.90538-.26283c.18259-.97554.30344-1.97174.37968-2.97876h.96379c.7538.01064 1.40861-.4124 1.78155-1.05132s.3733-1.43391 0-2.07345-1.05696-1.03277-1.81076-1.02212h-.93458c-.07632-1.02908-.19208-2.04071-.37968-3.03716l.90538-.23363c1.06882-.24735 1.73988-1.28687 1.54791-2.36548-.16867-.94781-.96237-1.65739-1.89838-1.72301-.15702-.011-.30209.01581-.40888.02922-.11703.01319-.20806.02554-.32126.0584l-.90539.23363c-.34083-.96096-.72804-1.89698-1.16822-2.80354l.81776-.46726c.82769-.47372 1.23563-1.44299.96379-2.36548s-1.14608-1.54034-2.10282-1.48937c-.33034.02213-.65113.12094-.93458.29203l-.81777.46725c-.57021-.83356-1.18307-1.62975-1.83996-2.39468l.67174-.67168c.6123-.59544.80005-1.51926.46728-2.30708s-1.13677-1.27931-1.98599-1.25575c-.53521.01677-1.02731.23068-1.40187.61328l-.70094.70088c-.76543-.65573-1.56318-1.27178-2.39487-1.83982l.49649-.84689c.40048-.67123.35239-1.50886-.05841-2.16106s-1.14642-1.0352-1.92758-.96372c-.68213.06146-1.30154.45348-1.63552,1.05133l-.4673.8469c-.89896-.4354-1.82181-.83035-2.77454-1.16814l.23364-.93451c.18405-.64097.03902-1.31043-.37967-1.83982s-1.06197-.81964-1.72314-.78849c-.90768.04921-1.67995.69463-1.89838,1.57699l-.23365.90531c-.98475-.18552-1.99104-.30283-3.00819-.37965v-.99291c.00915-.60501-.25978-1.14947-.70094-1.54779s-1.0447-.59507-1.63552-.52566zm.26285,6.7752c13.1139,2e-005 23.71509,10.51706 23.71509,23.62561s-10.6055,23.71323-23.71509,23.71323-23.7443-10.60467-23.7443-23.71323 10.63042-23.62561 23.7443-23.62561z" fill="url(#n)" stroke="#373c43" stroke-linecap="round" stroke-linejoin="round" stroke-width=".47042"/>
   <path d="m150 79.404c-0.13764 8.3e-4 -0.28503 0.00728-0.42339 0.02352-1.9685 0.23117-3.4641 1.9462-3.4342 3.9279v3.0811c-2.9986 0.18075-5.945 0.56795-8.8208 1.1525l-0.79974-2.9871c-0.45027-1.8272-2.145-3.0494-4.0223-2.9165-1.1702 0.08119-2.2458 0.68715-2.9167 1.6464s-0.86609 2.1665-0.54101 3.2928l0.79975 2.9871c-2.8246 0.94932-5.554 2.0915-8.1857 3.4104l-1.5525-2.7048c-0.71768-1.2743-2.0907-2.0419-3.5518-1.9757-1.365 0.06024-2.6002 0.85345-3.246 2.0463s-0.62367 2.6368 0.07057 3.8103l1.576 2.7048c-2.473 1.6374-4.8368 3.4247-7.0566 5.3861l-2.2111-2.2109c-0.73211-0.74679-1.7298-1.1551-2.7756-1.1525-1.5699 0.00939-3.009 0.95858-3.5989 2.4226s-0.20744 3.1387 0.91736 4.2336l2.1875 2.2109c-1.9616 2.2152-3.7696 4.5608-5.4101 7.0325l-2.6815-1.5523c-0.67128-0.4043-1.4523-0.58717-2.2346-0.54096-1.7007 0.11929-3.1484 1.342-3.5283 3.0106s0.40058 3.39 1.8818 4.2336l2.6815 1.5523c-1.322 2.6389-2.4609 5.3782-3.4107 8.2086l-2.9873-0.79969c-0.37936-0.10177-0.78364-0.15715-1.1761-0.14112-1.9174 0.0719-3.5064 1.5507-3.7165 3.4575s1.0428 3.7005 2.8932 4.1866l2.9638 0.77616c-0.58459 2.8755-0.97181 5.8217-1.1526 8.8201h-3.1049c-0.11317-0.00425-0.21618-0.00566-0.32931 0-2.1305 0.10651-3.7995 1.9387-3.693 4.069 0.10571 2.1141 1.9125 3.7717 4.0223 3.6927h3.1049c0.18085 2.9869 0.54776 5.9308 1.1291 8.7966l-2.9638 0.77617c-9e-5 0.00784-9e-5 0.01567 0 0.02352-2.0598 0.55043-3.279 2.6914-2.7286 4.7511s2.6916 3.2788 4.7514 2.7283l2.9638-0.77616c0.95429 2.8349 2.109 5.5707 3.4342 8.2085l-2.6815 1.5288c-1.8468 1.0654-2.5003 3.4454-1.4348 5.292s3.4457 2.5001 5.2925 1.4347l2.7286-1.5759c1.6309 2.4655 3.4068 4.8377 5.363 7.056l-2.1405 2.1403-0.04705 0.04704c-1.0325 0.95932-1.4653 2.4236-1.129 3.7868 0.34225 1.3876 1.4279 2.4932 2.8226 2.8459 1.3747 0.34763 2.8047-0.12555 3.7635-1.1525l0.02352 0.02352 0.02353-0.04704 2.1875-2.1638c2.2146 1.96 4.562 3.7699 7.0331 5.4096l-1.5524 2.6813c-9e-5 0.00784-9e-5 0.01569 0 0.02353-1.0654 1.8466-0.41194 4.2267 1.4348 5.292s4.227 0.41189 5.2924-1.4347l1.5525-2.6813c2.6238 1.3162 5.3446 2.4612 8.1621 3.4104l-0.79975 3.0106c-0.55048 2.0597 0.69224 4.1771 2.7521 4.7276s4.201-0.66867 4.7514-2.7283l0.79974-3.0106c2.8729 0.58724 5.8189 0.99183 8.8208 1.176v3.0811c-0.01988 1.4059 0.729 2.6867 1.9288 3.3869s2.7042 0.70062 3.9046 0 1.9487-2.0045 1.9288-3.4104v-3.0576c3.0023-0.18427 5.9472-0.58833 8.8208-1.176l0.77622 2.9165 0.02353 0.09408h0.02352c0.29112 1.392 1.2882 2.5322 2.658 2.94 1.4054 0.41845 2.9304-0.00229 3.9282-1.0584 0.98379-1.0414 1.2855-2.5425 0.82328-3.9044h0.04704l-0.77623-2.9635c2.8276-0.95286 5.5541-2.1122 8.1857-3.434l1.5289 2.6813c1.0654 1.8466 3.4457 2.5001 5.2924 1.4347s2.5003-3.4454 1.4348-5.292l-1.576-2.7283c2.4694-1.6362 4.8388-3.427 7.0566-5.3861l2.1875 2.1638 0.02353 0.04704 0.02352-0.02352c0.95882 1.0269 2.3888 1.5001 3.7635 1.1525 1.3947-0.3527 2.4804-1.4583 2.8226-2.8459 0.33621-1.3631-0.09656-2.8274-1.1291-3.7868l-0.04705-0.04704-2.1405-2.1403c1.9561-2.2182 3.7322-4.5907 5.363-7.056l2.7286 1.5759c1.8468 1.0654 4.227 0.4119 5.2924-1.4347s0.41193-4.2267-1.4348-5.292l-2.6815-1.5523c1.3246-2.6378 2.4802-5.3728 3.4342-8.2085l2.9638 0.79968c2.0598 0.55044 4.201-0.66866 4.7514-2.7283s-0.66871-4.2006-2.7286-4.7511c9e-5 -0.00785 9e-5 -0.01568 0-0.02352l-2.9638-0.77617c0.58132-2.8658 0.94822-5.8096 1.129-8.7966h3.0814c1.406 0.01989 2.6869-0.72893 3.3872-1.9286s0.70068-2.7039 0-3.9043-2.0047-1.9485-3.4107-1.9287h-3.0579c-0.18004-2.9967-0.54533-5.9449-1.129-8.8201l2.9638-0.77616c2.0037-0.46369 3.2533-2.4458 2.8932-4.4688-0.3159-1.775-1.8052-3.0763-3.5518-3.1987-0.27769-0.01947-0.53301-0.00404-0.7527 0.02352-0.21888 0.02469-0.42349 0.0797-0.6351 0.14112l-2.9402 0.79969c-0.95414-2.8346-2.1095-5.571-3.4342-8.2086l2.705-1.5523c1.5522-0.88836 2.2959-2.744 1.7877-4.4688s-2.1369-2.8708-3.9282-2.7754h-0.02353c-0.6177 0.04137-1.2106 0.22105-1.7406 0.54096l-2.6815 1.5523c-1.6404-2.4716-3.4486-4.8174-5.4101-7.0325l2.2111-2.2109c1.1455-1.114 1.469-2.831 0.84679-4.3042s-2.0777-2.3962-3.6694-2.352c-1.0009 0.03137-1.9575 0.46048-2.658 1.176l-2.2111 2.1874c-2.2183-1.9597-4.5863-3.7496-7.0566-5.3861l1.576-2.7283c0.74858-1.2547 0.70113-2.7968-0.07057-4.022s-2.1641-1.9445-3.6224-1.811c-1.276 0.115-2.4095 0.85727-3.0343 1.9757l-1.5525 2.7048c-2.638-1.3245-5.3733-2.48-8.2092-3.4339l0.79975-2.9635c0.34456-1.1999 0.09835-2.4942-0.68214-3.481s-1.9815-1.5167-3.2225-1.4582c-1.6996 0.09213-3.1664 1.2879-3.5754 2.94l-0.77622 2.9635c-2.8764-0.58497-5.8217-0.97164-8.8208-1.1525v-3.1047c0.01697-1.1267-0.46696-2.17-1.2937-2.9165-0.7234-0.65317-1.6474-1.0172-2.611-1.0114zm0.02353 13.924c31.388 7e-5 56.829 25.209 56.829 56.59s-25.447 56.825-56.829 56.825-56.829-25.445-56.829-56.825 25.441-56.59 56.829-56.59z" fill="url(#m)" stroke="#373c43" stroke-linecap="round" stroke-linejoin="round" stroke-width=".47042"/>
   <path transform="matrix(1.0828 0 0 1.0827 -324.32 -309.4)" d="m423.76 490.72c0 17.016-13.794 30.81-30.81 30.81s-30.81-13.794-30.81-30.81 13.794-30.81 30.81-30.81 30.81 13.794 30.81 30.81z" fill="#505870"/>
   <path d="m101.06 180.7c-0.08052 4.8e-4 -0.16674 0.00426-0.24769 0.01376-1.1516 0.13523-2.0265 1.1385-2.009 2.2978v1.8025c-1.7542 0.10573-3.4778 0.33226-5.1601 0.67421l-0.46785-1.7474c-0.26341-1.0689-1.2548-1.7839-2.353-1.7061-0.68459 0.04749-1.3138 0.40198-1.7063 0.96315s-0.50665 1.2674-0.31649 1.9263l0.46785 1.7474c-1.6524 0.55534-3.2491 1.2235-4.7886 1.9951l-0.90818-1.5823c-0.41984-0.74547-1.2231-1.1945-2.0778-1.1558-0.79855 0.03523-1.5211 0.49925-1.8989 1.1971s-0.36484 1.5425 0.04129 2.229l0.92193 1.5823c-1.4467 0.95786-2.8295 2.0034-4.1281 3.1509l-1.2935-1.2934c-0.42829-0.43687-1.0119-0.67572-1.6237-0.67421-0.91836 0.0055-1.7602 0.56078-2.1053 1.4172s-0.12136 1.8361 0.53666 2.4767l1.2797 1.2934c-1.1475 1.2959-2.2052 2.668-3.1649 4.114l-1.5687-0.90809c-0.3927-0.23653-0.84958-0.3435-1.3072-0.31647-0.9949 0.06978-1.8418 0.78506-2.064 1.7612s0.23434 1.9832 1.1008 2.4767l1.5687 0.90811c-0.77337 1.5438-1.4396 3.1462-1.9952 4.802l-1.7476-0.46783c-0.22192-0.05952-0.45844-0.09192-0.68802-0.08255-1.1216 0.04207-2.0512 0.90718-2.1741 2.0226s0.61007 2.1648 1.6925 2.4492l1.7338 0.45405c-0.34198 1.6822-0.56851 3.4057-0.67426 5.1597h-2.009c-1.2463 0.06232-2.2227 1.1341-2.1604 2.3804 0.06184 1.2367 1.1188 2.2064 2.353 2.1602h1.8164c0.1058 1.7473 0.32044 3.4695 0.6605 5.146l-1.7338 0.45406c-5e-5 0.00459-5e-5 0.00917 0 0.01376-1.205 0.322-1.9182 1.5744-1.5962 2.7794s1.5746 1.9181 2.7796 1.5961l1.7338-0.45406c0.55827 1.6584 1.2338 3.2588 2.009 4.802l-1.5687 0.89435c-1.0804 0.62323-1.4627 2.0156-0.83939 3.0958s2.0157 1.4625 3.0961 0.83932l1.5962-0.92188c0.95405 1.4423 1.9929 2.8301 3.1374 4.1278l-1.2522 1.2521-0.02752 0.02752c-0.60401 0.56121-0.85718 1.4178-0.6605 2.2152 0.20022 0.81176 0.83533 1.4586 1.6512 1.6649 0.80421 0.20336 1.6407-0.07346 2.2016-0.67422l0.01376 0.01376 0.01376-0.02751 1.2797-1.2659c1.2955 1.1466 2.6688 2.2054 4.1143 3.1646l-0.90818 1.5686c-5e-5 0.00458-5e-5 0.00917 0 0.01375-0.62329 1.0803-0.24098 2.4726 0.83938 3.0958s2.4728 0.24096 3.0961-0.83931l0.90818-1.5686c1.5349 0.76996 3.1266 1.4398 4.7748 1.9951l-0.46785 1.7612c-0.32204 1.2049 0.40496 2.4436 1.61 2.7656 1.205 0.322 2.4576-0.39117 2.7796-1.5961l0.46785-1.7612c1.6806 0.34353 3.404 0.58023 5.1601 0.68796v1.8025c-0.01163 0.82245 0.42647 1.5717 1.1284 1.9813s1.5819 0.40986 2.2842 0 1.14-1.1726 1.1283-1.9951v-1.7887c1.7563-0.1078 3.4791-0.34416 5.1601-0.68796l0.45409 1.7061 0.01376 0.05504h0.01376c0.17031 0.81434 0.75357 1.4813 1.5549 1.7199 0.82215 0.2448 1.7143-0.00135 2.298-0.61917 0.57551-0.60921 0.75199-1.4873 0.48161-2.284h0.02751l-0.45409-1.7337c1.6542-0.55742 3.2492-1.2356 4.7886-2.0088l0.89442 1.5686c0.62329 1.0803 2.0157 1.4626 3.0961 0.83931s1.4626-2.0156 0.83938-3.0958l-0.92195-1.5961c1.4446-0.95716 2.8307-2.0048 4.1281-3.1509l1.2797 1.2659 0.01375 0.02751 0.01376-0.01376c0.56091 0.60076 1.3974 0.87758 2.2017 0.67422 0.8159-0.20634 1.451-0.85313 1.6512-1.6649 0.19669-0.79742-0.05648-1.654-0.66049-2.2152l-0.02752-0.02752-1.2522-1.2521c1.1443-1.2977 2.1833-2.6855 3.1374-4.1278l1.5962 0.92188c1.0804 0.62322 2.4728 0.24095 3.0961-0.83932s0.24098-2.4726-0.83938-3.0958l-1.5687-0.90811c0.7749-1.5431 1.4509-3.1431 2.009-4.802l1.7338 0.46782c1.205 0.322 2.4576-0.39117 2.7796-1.5961s-0.3912-2.4574-1.5962-2.7794c5e-5 -0.00459 5e-5 -0.00917 0-0.01376l-1.7338-0.45406c0.34007-1.6765 0.5547-3.3986 0.66049-5.146h1.8026c0.82253 0.01165 1.5718-0.42641 1.9815-1.1282s0.4099-1.5818 0-2.284-1.1727-1.1399-1.9952-1.1283h-1.7888c-0.10532-1.7531-0.31902-3.4777-0.66049-5.1597l1.7338-0.45405c1.1722-0.27127 1.9032-1.4308 1.6925-2.6143-0.1848-1.0383-1.056-1.7996-2.0778-1.8712-0.16245-0.01139-0.31181-0.00237-0.44033 0.01375-0.12805 0.01445-0.24774 0.04664-0.37153 0.08255l-1.72 0.46783c-0.55817-1.6583-1.234-3.259-2.009-4.802l1.5824-0.90811c0.90804-0.51968 1.3431-1.6052 1.0458-2.6142s-1.2501-1.6794-2.298-1.6236h-0.01376c-0.36135 0.02421-0.70822 0.12931-1.0183 0.31647l-1.5687 0.90809c-0.95963-1.4459-2.0174-2.8182-3.1649-4.114l1.2935-1.2934c0.67012-0.65168 0.85937-1.6562 0.49537-2.518s-1.2154-1.4018-2.1466-1.3759c-0.58552 0.01836-1.1451 0.26939-1.5549 0.68796l-1.2935 1.2796c-1.2977-1.1464-2.683-2.1935-4.1281-3.1509l0.92195-1.5961c0.43791-0.73397 0.41016-1.6361-0.04129-2.3528s-1.266-1.1375-2.1191-1.0595c-0.74648 0.06726-1.4096 0.50149-1.7751 1.1558l-0.90818 1.5823c-1.5432-0.77485-3.1433-1.4508-4.8024-2.0088l0.46786-1.7337c0.20157-0.70195 0.05753-1.4591-0.39906-2.0364s-1.1592-0.88729-1.8852-0.85307c-0.99428 0.0539-1.8523 0.75341-2.0916 1.7199l-0.45409 1.7337c-1.6827-0.34222-3.4057-0.56842-5.1601-0.67421v-1.8162c0.00993-0.6591-0.27317-1.2695-0.75681-1.7062-0.42319-0.3821-0.96373-0.59506-1.5274-0.59165zm0.01376 8.1455c18.362 3e-5 33.245 14.747 33.245 33.105s-14.886 33.242-33.245 33.242-33.245-14.885-33.245-33.242 14.883-33.105 33.245-33.105z" fill="url(#l)" stroke="#373c43" stroke-linecap="round" stroke-linejoin="round" stroke-width=".47042"/>
   <path d="m150 1.8817c-81.763 0-148.12 66.35-148.12 148.11s66.355 148.13 148.12 148.13 148.12-66.373 148.12-148.13-66.355-148.11-148.12-148.11zm0 49.11c54.661 1e-5 99.028 44.34 99.028 98.996s-44.367 99.02-99.028 99.02-99.028-44.363-99.028-99.02 44.367-98.996 99.028-98.996z" fill="#989dac" stroke="url(#k)" stroke-linecap="round" stroke-linejoin="round" stroke-width="3.7634"/>
   <path transform="matrix(20.535 0 0 20.533 -8240.5 -9470.8)" d="m415.8 468.54c0 3.9837-3.2294 7.2131-7.2131 7.2131s-7.2131-3.2294-7.2131-7.2131 3.2294-7.2131 7.2131-7.2131 7.2131 3.2294 7.2131 7.2131z" fill="none" stroke="url(#j)" stroke-linecap="round" stroke-linejoin="round" stroke-width=".06873"/>
   <path d="m235.9 79.193c-2.2698-2.7498-4.655-5.3838-7.1742-7.9028s-5.177-4.9276-7.9269-7.1972-5.6-4.4195-8.562-6.421-6.0182-3.8596-9.1736-5.5743-6.4081-3.2714-9.7381-4.6805-6.7462-2.6548-10.232-3.7397-7.0324-2.0099-10.655-2.7519-7.3137-1.3131-11.055-1.6934-7.5432-0.56448-11.385-0.56448-7.643 0.18416-11.385 0.56448-7.4322 0.95149-11.055 1.6934-7.1696 1.667-10.655 2.7519-6.9021 2.3306-10.232 3.7397-6.5828 2.9659-9.7381 4.6805-6.2116 3.5728-9.1736 5.5743-5.8356 4.1514-8.5855 6.421-5.3842 4.6781-7.9034 7.1972-4.9044 5.153-7.1742 7.9028-4.4199 5.5996-6.4215 8.5613-3.8599 6.0413-5.5747 9.1964-3.2952 6.3841-4.7044 9.7138-2.655 6.7456-3.74 10.231-2.01 7.0553-2.7521 10.678-1.2897 7.3131-1.6701 11.054-0.58805 7.5191-0.58805 11.36 0.20769 7.6424 0.58805 11.384 0.92804 7.4316 1.6701 11.054 1.6671 7.169 2.7521 10.655 2.3308 6.9016 3.74 10.231 2.9896 6.5822 4.7044 9.7373 3.5731 6.2111 5.5747 9.1729l45.609 26.484c-31.836-16.808-53.56-50.239-53.56-88.718 1e-5 -55.346 44.924-100.27 100.27-100.27 44.928 0 82.971 29.604 95.711 70.349l-9.8087-40.878z" fill="url(#c)"/>
   <path d="m150 1.8817c-81.763 0-148.12 66.35-148.12 148.11 0 27.772 7.665 53.77 20.982 75.994l54.971 8.7025c-2.2517-1.9205-4.4711-3.8828-6.5626-5.9741-2.5192-2.519-4.9044-5.153-7.1742-7.9028s-4.4199-5.6231-6.4215-8.5849-3.8599-6.0178-5.5747-9.1729-3.2952-6.4076-4.7044-9.7373-2.655-6.7456-3.74-10.231-2.01-7.0318-2.7521-10.655-1.2897-7.3131-1.6701-11.054-0.58805-7.5426-0.58805-11.384 0.20769-7.6189 0.58805-11.36 0.92804-7.4316 1.6701-11.054 1.6671-7.1925 2.7521-10.678 2.3308-6.9016 3.74-10.231 2.9896-6.5587 4.7044-9.7138 3.5731-6.2346 5.5747-9.1964 4.1517-5.8116 6.4215-8.5613 4.655-5.3838 7.1742-7.9028 5.1534-4.9276 7.9034-7.1972 5.6235-4.4195 8.5855-6.421 6.0182-3.8596 9.1736-5.5743 6.4082-3.2714 9.7381-4.6805 6.7462-2.6548 10.232-3.7397 7.0324-2.0099 10.655-2.7519 7.3137-1.3131 11.055-1.6934 7.5432-0.56448 11.385-0.56448 7.643 0.18416 11.385 0.56448 7.4322 0.95149 11.055 1.6934 7.1696 1.667 10.655 2.7519 6.9021 2.3306 10.232 3.7397 6.5828 2.9659 9.7381 4.6805 6.2116 3.5728 9.1736 5.5743 5.812 4.1514 8.562 6.421 5.4077 4.6781 7.9269 7.1972 4.9044 5.153 7.1742 7.9028 4.4199 5.5996 6.4215 8.5613c1.8898 2.7962 3.6344 5.7099 5.2689 8.6789l4.2575-53.955c-26.552-25.162-62.407-40.596-101.85-40.596z" fill="url(#c)"/>
   <g transform="matrix(.7527 0 0 .75265 -157.55 -202.65)">
    <path d="m407.96875,279.28125v6.375h.625 .625v-6.375h-.625-.625zm-18.53125.9375c-.41881.04215-.832.11137-1.25.15625l.65625,6.34375c.41743-.0449.83173-.11417 1.25-.15625l-.65625-6.34375zm38.3125,0-.65625,6.34375c.41827.04208.83257.11135 1.25.15625l.65625-6.34375c-.418-.04488-.83119-.1141-1.25-.15625zm-57.875,3.03125-1.21875.28125 1.3125,6.21875c.40602-.08741.81174-.16529 1.21875-.25l-1.3125-6.25zm77.46875,0-1.3125,6.25c.39918.08315.78928.1955 1.1875.28125l1.34375-6.25c-.40814-.08788-.80964-.19601-1.21875-.28125zm-96.625,5.0625c-.40595.13036-.814.24198-1.21875.375l1.96875,6.09375c.40794-.13418.80955-.27487 1.21875-.40625l-1.96875-6.0625zm115.75,0-1.96875,6.0625c.39975.12834.78895.27524 1.1875.40625l1.96875-6.09375c-.39282-.12906-.79355-.24845-1.1875-.375zm-134.28125,7.03125c-.38786.17147-.76976.35725-1.15625.53125l2.59375,5.8125c.3813-.17171.77357-.33084 1.15625-.5l-2.59375-5.84375zm152.8125,0-2.59375,5.84375c.38268.16916.77495.32829 1.15625.5l2.59375-5.8125c-.38649-.174-.76839-.35978-1.15625-.53125zm17.6875,8.9375-3.21875,5.5625c.36361.20879.73171.41379 1.09375.625l3.1875-5.53125c-.35864-.20917-.70237-.44938-1.0625-.65625zm-188.1875.03125c-.35573.20439-.70822.41837-1.0625.625l3.1875,5.53125 1.0625-.625-3.1875-5.53125zm-16.625,10.71875c-.35065.25344-.68241.52548-1.03125.78125l3.75,5.15625 1.03125-.75-3.75-5.1875zm221.4375.03125-3.75,5.15625 1.03125.75 3.75-5.15625-1.03125-.75zm-236.90625,12.4375c-.30633.27426-.60172.56753-.90625.84375l4.28125,4.75c.30601-.27768.59836-.56812.90625-.84375l-4.28125-4.75zm252.34375,0-4.28125,4.75c.30859.27618.6308.53426.9375.8125l4.28125-4.75c-.30519-.27676-.6305-.53771-.9375-.8125zm-266.375,13.9375c-.28947.31907-.55643.64771-.84375.96875l4.75,4.28125c.28457-.3181.55699-.65266.84375-.96875l-4.75-4.28125zm280.4375,0-4.75,4.28125c.27824.3067.53632.62891.8125.9375l4.75-4.28125c-.27753-.30995-.53297-.62939-.8125-.9375zm-292.96875,15.375c-.24208.33029-.47876.66809-.71875,1l5.15625,3.75c.24505-.33903.50269-.66272.75-1l-5.1875-3.75zm305.5,0-5.1875,3.75c.24731.33728.50495.66097.75,1l5.15625-3.75c-.23999-.33191-.47667-.66971-.71875-1zm-316.375,16.5625c-.20708.3551-.42017.70593-.625,1.0625l5.53125,3.1875c.20419-.35547.4185-.70854.625-1.0625l-5.53125-3.1875zm327.21875,0-5.53125,3.1875c.21107.36179.41635.73038.625,1.09375l5.5625-3.21875c-.20687-.36013-.44708-.70386-.65625-1.0625zm-336.28125,17.59375c-.17229.38268-.33019.77222-.5,1.15625l5.84375,2.59375c.17029-.38512.32713-.77253.5-1.15625l-5.84375-2.59375zm345.34375,0-5.8125,2.59375c.17287.38372.32971.77113.5,1.15625l5.84375-2.59375c-.17147-.38786-.35725-.76976-.53125-1.15625zm-352.5,18.5c-.12934.39363-.24818.79274-.375,1.1875l6.0625,1.96875c.12683-.39487.24556-.79381.375-1.1875l-6.0625-1.96875zm359.6875,0-6.09375,1.96875c.13017.3959.27872.79041.40625,1.1875l6.0625-1.96875c-.12655-.39395-.24594-.79468-.375-1.1875zm-364.875,19.09375c-.08788.40814-.19601.80964-.28125,1.21875l6.28125,1.34375c.08516-.40919.19336-.81056.28125-1.21875l-6.28125-1.34375zm370.0625,0-6.28125,1.34375c.08789.40819.19609.80956.28125,1.21875l6.28125-1.34375c-.08524-.40911-.19337-.81061-.28125-1.21875zm-373.21875,19.59375c-.04355.40619-.08403.81179-.125,1.21875l6.34375.65625c.04105-.40795.11252-.81159.15625-1.21875l-6.375-.65625zm376.34375,0-6.34375.65625c.04373.40716.1152.8108.15625,1.21875l6.34375-.65625c-.04107-.40806-.11258-.81145-.15625-1.21875zm-377.4375,19.75c-.00068.2091 0,.41574 0,.625s-.00067.41723 0,.625h6.40625c-.0007-.20872 0-.41612 0-.625s-.0007-.41628 0-.625h-6.40625zm372.15625,0c.0007.20872 0,.41612 0,.625s.0007.41628 0,.625h6.40625c.00067-.20777 0-.41707 0-.625s.00068-.4159 0-.625h-6.40625zm-364.84375,19.125-6.34375.65625c.04204.41767.08024.83313.125,1.25l6.375-.65625c-.0449-.41743-.11417-.83173-.15625-1.25zm363.9375,0c-.04208.41827-.11135.83257-.15625,1.25l6.34375.65625c.04488-.418.1141-.83119.15625-1.25l-6.34375-.65625zm-361,18.90625-6.28125,1.34375c.08468.40647.19397.81324.28125,1.21875l6.25-1.34375c-.08741-.40602-.16529-.81174-.25-1.21875zm358.0625,0c-.08471.40701-.16259.81273-.25,1.21875l6.25,1.34375c.08728-.40551.19657-.81228.28125-1.21875l-6.28125-1.34375zm-353.1875,18.53125-6.0625,1.96875c.12766.39729.24479.79135.375,1.1875l6.0625-1.96875c-.12944-.39369-.24817-.79263-.375-1.1875zm348.28125,0c-.12656.39399-.24584.79467-.375,1.1875l6.09375,1.96875c.12992-.39532.24762-.79104.375-1.1875l-6.09375-1.96875zm-341.46875,17.90625-5.84375,2.59375c.16601.37527.33163.75102.5,1.125l5.84375-2.59375-.5-1.125zm334.6875,0c-.16642.37637-.33112.74996-.5,1.125l5.8125,2.59375c.16837-.37398.33399-.74973.5-1.125l-5.8125-2.59375zm-326.0625,17.0625-5.53125,3.1875c.21205.36915.44178.72617.65625,1.09375l5.53125-3.1875c-.21495-.36834-.44381-.72378-.65625-1.09375zm317.40625,0c-.20978.36533-.41278.73001-.625,1.09375l5.53125,3.1875c.21126-.36211.41608-.73012.625-1.09375l-5.53125-3.1875zm-10.40625,16.0625c-.24499.33891-.4715.69409-.71875,1.03125l5.15625,3.75c.24713-.33706.50505-.66125.75-1l-5.1875-3.78125zm-296.5625.03125-5.1875,3.75c.24495.33875.50287.66294.75,1l5.15625-3.75c-.24228-.33038-.47864-.66794-.71875-1zm11.96875,14.875-4.75,4.28125c.28064.31356.56105.62583.84375.9375l4.75-4.28125-.84375-.9375zm272.59375.03125c-.27474.30695-.53573.63242-.8125.9375l4.75,4.28125c.27811-.30653.53638-.62914.8125-.9375l-4.75-4.28125zm-259.09375,13.5625-4.28125,4.75 .9375.84375 4.28125-4.75-.9375-.84375zm245.625.03125c-.3067.27824-.62891.53632-.9375.8125l4.28125,4.75c.307-.27479.63231-.53574.9375-.8125l-4.28125-4.75zm-230.8125,12.0625-3.75,5.15625c.34884.25577.6806.52781 1.03125.78125l3.75-5.1875-1.03125-.75zm216,0-1.03125.75 3.75,5.15625 1.03125-.75-3.75-5.15625zm-200,10.5-3.1875,5.53125 1.09375.625 3.1875-5.53125c-.36357-.20888-.73175-.4137-1.09375-.625zm183.96875.03125-1.0625.625 3.1875,5.53125c.35657-.20483.7074-.41792 1.0625-.625l-3.1875-5.53125zm-166.9375,8.75-2.59375,5.84375 1.15625.5 2.59375-5.84375c-.38268-.16916-.77495-.32829-1.15625-.5zm149.9375,0c-.3813.17171-.77357.33084-1.15625.5l2.59375,5.84375 1.15625-.5-2.59375-5.84375zm-132.09375,6.90625-2,6.09375 1.25.40625 1.96875-6.09375c-.41007-.13166-.80994-.27177-1.21875-.40625zm114.25.03125c-.40575.13345-.81175.24432-1.21875.375l1.96875,6.09375c.4064-.13055.81355-.27303 1.21875-.40625l-1.96875-6.0625zm-18.46875,5-1.25.28125 1.3125,6.25 1.25-.28125-1.3125-6.25zm-77.28125.03125-1.3125,6.21875c.3982.08567.78837.19809 1.1875.28125l1.3125-6.25c-.397-.08269-.79145-.16474-1.1875-.25zm18.875,3-.65625,6.375 1.25.125 .65625-6.34375c-.41827-.04208-.83257-.11135-1.25-.15625zm39.5,0c-.41743.0449-.83173.11417-1.25.15625l.65625,6.34375 1.25-.125-.65625-6.375zm-20.375,1.09375v6.375h.625 .625v-6.375h-.625-.625z"/>
    <path transform="matrix(26.241 0 0 26.241 -10313 -11827)" d="m415.8 468.54c0 3.9837-3.2294 7.2131-7.2131 7.2131s-7.2131-3.2294-7.2131-7.2131 3.2294-7.2131 7.2131-7.2131 7.2131 3.2294 7.2131 7.2131z" fill="none" stroke="#000" stroke-linecap="round" stroke-linejoin="round" stroke-width=".04763"/>
    <path d="m408.59375,279.25c-.41867,0-.83197.02853-1.25.03125v6.40625c.41725-.0028.83209-.03125 1.25-.03125s.83275.02845 1.25.03125v-6.40625c-.41803-.00272-.83133-.03125-1.25-.03125zm-93.53125,24.75c-.7411.42245-1.48395.84912-2.21875,1.28125l3.21875,5.53125c.72749-.42793 1.45363-.86314 2.1875-1.28125l-3.1875-5.53125zm187.0625,0-3.1875,5.53125c.7215.41106 1.44092.82945 2.15625,1.25l3.1875-5.53125c-.715-.42013-1.43529-.83903-2.15625-1.25zm-256.8125,68.8125c-.4208.71586-.83838,1.43442-1.25,2.15625l5.53125,3.1875c.40609-.71236.83465-1.41866 1.25-2.125l-5.53125-3.21875zm326.5625,0-5.53125,3.21875c.41976.71398.8397,1.43612 1.25,2.15625l5.53125-3.21875c-.41162-.72183-.8292-1.44039-1.25-2.15625zm-352.53125,94.46875c-.00272.41803-.03125.83133-.03125,1.25s.02857.83462.03125,1.25h6.40625c-.0028-.41725-.03125-.83209-.03125-1.25s.02845-.83275.03125-1.25h-6.40625zm372.09375,0c.0028.41725.03125.83209.03125,1.25s-.02845.83275-.03125,1.25h6.40625c.00268-.41538.03125-.834.03125-1.25s-.02853-.83197-.03125-1.25h-6.40625zm-341.875,91.625-5.5,3.1875c.4123.72306.82849,1.43918 1.25,2.15625l5.53125-3.1875c-.42435-.72155-.86656-1.42841-1.28125-2.15625zm318.03125,0c-.41204.72319-.82842,1.43926-1.25,2.15625l5.53125,3.1875c.42151-.71707.8377-1.43319 1.25-2.15625l-5.53125-3.1875zm-251.53125,67.375-3.1875,5.53125c.71586.4208 1.43442.83838 2.15625,1.25l3.1875-5.53125c-.72142-.41123-1.44101-.82927-2.15625-1.25zm185.0625,0c-.71524.42073-1.43483.83877-2.15625,1.25l3.1875,5.53125c.72183-.41162 1.44039-.8292 2.15625-1.25l-3.1875-5.53125zm-93.78125,25.125v6.375c.41803.00272.83133.03125 1.25.03125s.83197-.02853 1.25-.03125v-6.375c-.41725.0028-.83209.03125-1.25.03125s-.83275-.02845-1.25-.03125z"/>
    <path transform="matrix(25.354 0 0 25.354 -9950.8 -11411)" d="m415.8 468.54c0 3.9837-3.2294 7.2131-7.2131 7.2131s-7.2131-3.2294-7.2131-7.2131 3.2294-7.2131 7.2131-7.2131 7.2131 3.2294 7.2131 7.2131z" fill="none" stroke="#000" stroke-linecap="round" stroke-linejoin="round" stroke-width=".0493"/>
   </g>
   <path transform="matrix(13.877 0 0 13.876 -5519.9 -6351.3)" d="m415.8 468.54c0 3.9837-3.2294 7.2131-7.2131 7.2131s-7.2131-3.2294-7.2131-7.2131 3.2294-7.2131 7.2131-7.2131 7.2131 3.2294 7.2131 7.2131z" fill="none" stroke="#373c43" stroke-linecap="round" stroke-linejoin="round" stroke-width=".13561"/>
   <path transform="matrix(15.421 0 0 15.419 -6150.7 -7074.7)" d="m415.8 468.54c0 3.9837-3.2294 7.2131-7.2131 7.2131s-7.2131-3.2294-7.2131-7.2131 3.2294-7.2131 7.2131-7.2131 7.2131 3.2294 7.2131 7.2131z" fill="none" stroke="url(#i)" stroke-linecap="round" stroke-linejoin="round" stroke-width=".24612"/>
   <path d="m150 39.702c-60.884 0-110.29 49.407-110.29 110.29s49.411 110.29 110.29 110.29 110.29-49.407 110.29-110.29-49.411-110.29-110.29-110.29zm0 11.29c54.661 1e-5 99.028 44.34 99.028 98.996s-44.367 99.02-99.028 99.02-99.028-44.363-99.028-99.02 44.367-98.996 99.028-98.996z" fill="url(#h)"/>
   <path transform="matrix(13.728 0 0 13.727 -5459.2 -6281.7)" d="m415.8 468.54c0 3.9837-3.2294 7.2131-7.2131 7.2131s-7.2131-3.2294-7.2131-7.2131 3.2294-7.2131 7.2131-7.2131 7.2131 3.2294 7.2131 7.2131z" fill="none" stroke="url(#g)" stroke-linecap="round" stroke-linejoin="round" stroke-width=".1028"/>
   <path d="m150 38.22c-61.683 0-111.78 50.09-111.78 111.77s50.094 111.77 111.78 111.77 111.78-50.09 111.78-111.77-50.094-111.77-111.78-111.77zm0 2.9635c60.085-1e-5 108.81 48.724 108.81 108.8s-48.728 108.8-108.81 108.8-108.81-48.724-108.81-108.8 48.728-108.8 108.81-108.8z" fill="#1a2230"/>
   <path transform="matrix(1.2727 0 0 1.2726 -370.02 -446.28)" d="m415.8 468.54c0 3.9837-3.2294 7.2131-7.2131 7.2131s-7.2131-3.2294-7.2131-7.2131 3.2294-7.2131 7.2131-7.2131 7.2131 3.2294 7.2131 7.2131z" fill="url(#f)"/>
   <path transform="matrix(.81834 0 0 .81828 -184.37 -233.4)" d="m415.8 468.54c0 3.9837-3.2294 7.2131-7.2131 7.2131s-7.2131-3.2294-7.2131-7.2131 3.2294-7.2131 7.2131-7.2131 7.2131 3.2294 7.2131 7.2131z" fill="url(#e)" stroke="#373c43" stroke-linecap="round" stroke-linejoin="round" stroke-width=".57487"/>
   <path transform="matrix(.28614 0 0 .28612 33.084 15.939)" d="m415.8 468.54c0 3.9837-3.2294 7.2131-7.2131 7.2131s-7.2131-3.2294-7.2131-7.2131 3.2294-7.2131 7.2131-7.2131 7.2131 3.2294 7.2131 7.2131z" fill="url(#d)"/>
   <path transform="scale(1 .99996)" d="m137.73 32.762 1.9522 0.31753v0.62331h-5.1511v-0.62331l1.7406-0.31753 5.3628-7.1269-4.5748-6.7741-1.7758-0.30577v-0.62331h6.5036v0.62331l-1.9993 0.30577 3.2694 4.8689 3.6575-4.8689-1.9522-0.30577v-0.62331h5.1629v0.62331l-1.7406 0.30577-4.4337 5.9038 5.4216 7.9972 1.7876 0.31753v0.62331h-6.5036v-0.62331l1.9993-0.31753-4.1397-6.1155-4.5866 6.1155m18.829 0 2.0228 0.31753v0.62331h-6.3037v-0.62331l2.0228-0.31753v-13.901l-2.0228-0.30577v-0.62331h6.3037v0.62331l-2.0228 0.30577v13.901m8.0442 0 2.0228 0.31753v0.62331h-6.3036v-0.62331l2.0228-0.31753v-13.901l-2.0228-0.30577v-0.62331h6.3036v0.62331l-2.0228 0.30577v13.901" fill="#171c26"/>
   <path transform="matrix(.86606,.49998,-.50002,.86599,0,0)" d="m206.85-62.339 2.0228 0.31754v0.62331h-6.3036v-0.62331l2.0228-0.31754v-13.901l-2.0228-0.30577v-0.62331h6.3036v0.62331l-2.0228 0.30577v13.901" fill="#171c26"/>
   <path transform="matrix(.50002,.86599,-.86606,.49998,0,0)" d="m202.88-172.18 2.0228 0.31753v0.62331h-6.3037v-0.62331l2.0228-0.31753v-13.901l-2.0228-0.30578v-0.62331h6.3037v0.62331l-2.0228 0.30578v13.901m8.0442 0 2.0228 0.31753v0.62331h-6.3036v-0.62331l2.0228-0.31753v-13.901l-2.0228-0.30578v-0.62331h6.3036v0.62331l-2.0228 0.30578v13.901" fill="#171c26"/>
   <path transform="matrix(0 .99996 -1 0 0 0)" d="m143.98-267.34 2.0228 0.31753v0.62331h-6.3036v-0.62331l2.0228-0.31753v-13.901l-2.0228-0.30578v-0.62331h6.3036v0.62331l-2.0228 0.30578v13.901m8.0442 0 2.0228 0.31753v0.62331h-6.3036v-0.62331l2.0228-0.31753v-13.901l-2.0228-0.30578v-0.62331h6.3036v0.62331l-2.0228 0.30578v13.901m8.0442 0 2.0228 0.31753v0.62331h-6.3037v-0.62331l2.0228-0.31753v-13.901l-2.0228-0.30578v-0.62331h6.3037v0.62331l-2.0228 0.30578v13.901" fill="#171c26"/>
   <path transform="matrix(-.50002,.86599,-.86606,-.49998,0,0)" d="m48.222-322.3 2.0228 0.31753v0.62331h-6.3036v-0.62331l2.0228-0.31753v-13.901l-2.0228-0.30578v-0.62331h6.3036v0.62331l-2.0228 0.30578v13.901m20.016-14.83v0.62331l-1.7288 0.30578-6.3389 15.206h-0.59979l-6.4095-15.206-1.7758-0.30578v-0.62331h6.3742v0.62331l-2.1169 0.30578 4.7748 11.608 4.763-11.608-2.0699-0.30578v-0.62331h5.1276" fill="#171c26"/>
   <path transform="matrix(-.86606,.49998,-.50002,-.86599,0,0)" d="m-45.627-337.19v0.62331l-1.7288 0.30577-6.3389 15.206h-0.59979l-6.4095-15.206-1.7758-0.30577v-0.62331h6.3742v0.62331l-2.1169 0.30577 4.7748 11.608 4.763-11.608-2.0699-0.30577v-0.62331h5.1276" fill="#171c26"/>
   <path transform="scale(-1 -.99996)" d="m-144.8-282.31v0.6233l-1.7288 0.30578-6.3389 15.206h-0.59978l-6.4095-15.206-1.7758-0.30578v-0.6233h6.3742v0.6233l-2.1169 0.30578 4.7748 11.608 4.763-11.608-2.0699-0.30578v-0.6233h5.1276m5.4334 14.83 2.0228 0.31753v0.62331h-6.3037v-0.62331l2.0228-0.31753v-13.901l-2.0228-0.30578v-0.6233h6.3037v0.6233l-2.0228 0.30578v13.901" fill="#171c26"/>
   <path transform="matrix(-.86606,-.49998,.50002,-.86599,0,0)" d="m-203.79-187.21v0.62331l-1.7288 0.30577-6.3389 15.206h-0.59978l-6.4095-15.206-1.7758-0.30577v-0.62331h6.3742v0.62331l-2.1169 0.30577 4.7748 11.608 4.763-11.608-2.0699-0.30577v-0.62331h5.1276m5.4334 14.83 2.0228 0.31754v0.62331h-6.3036v-0.62331l2.0228-0.31754v-13.901l-2.0228-0.30577v-0.62331h6.3036v0.62331l-2.0228 0.30577v13.901m8.0442 0 2.0228 0.31754v0.62331h-6.3037v-0.62331l2.0228-0.31754v-13.901l-2.0228-0.30577v-0.62331h6.3037v0.62331l-2.0228 0.30577v13.901" fill="#171c26"/>
   <path transform="matrix(-.50002,-.86599,.86606,-.49998,0,0)" d="m-207.87-77.366v0.62331l-1.7288 0.30577-6.3389 15.206h-0.59979l-6.4095-15.206-1.7758-0.30577v-0.62331h6.3742v0.62331l-2.1169 0.30577 4.7748 11.608 4.763-11.608-2.0699-0.30577v-0.62331h5.1276m5.4334 14.83 2.0228 0.31754v0.62331h-6.3037v-0.62331l2.0228-0.31754v-13.901l-2.0228-0.30577v-0.62331h6.3037v0.62331l-2.0228 0.30577v13.901m8.0442 0 2.0228 0.31754v0.62331h-6.3036v-0.62331l2.0228-0.31754v-13.901l-2.0228-0.30577v-0.62331h6.3036v0.62331l-2.0228 0.30577v13.901m8.0442 0 2.0228 0.31754v0.62331h-6.3037v-0.62331l2.0228-0.31754v-13.901l-2.0228-0.30577v-0.62331h6.3037v0.62331l-2.0228 0.30577v13.901" fill="#171c26"/>
   <path transform="matrix(0 -.99996 1 0 0 0)" d="m-156.92 32.618 2.0228 0.31753v0.62331h-6.3037v-0.62331l2.0228-0.31753v-13.901l-2.0228-0.30577v-0.62331h6.3037v0.62331l-2.0228 0.30577v13.901m6.6212 0 1.9522 0.31753v0.62331h-5.1511v-0.62331l1.7406-0.31753 5.3628-7.1269-4.5749-6.7741-1.7758-0.30577v-0.62331h6.5036v0.62331l-1.9993 0.30577 3.2694 4.8689 3.6575-4.8689-1.9522-0.30577v-0.62331h5.1629v0.62331l-1.7406 0.30577-4.4337 5.9038 5.4216 7.9972 1.7876 0.31753v0.62331h-6.5036v-0.62331l1.9993-0.31753-4.1397-6.1155-4.5866 6.1155" fill="#171c26"/>
   <path transform="matrix(.50002,-.86599,.86606,.49998,0,0)" d="m-59.22 87.585 1.9522 0.31753v0.62331h-5.1511v-0.62331l1.7406-0.31753 5.3628-7.1269-4.5748-6.7741-1.7758-0.30577v-0.62331h6.5036v0.62331l-1.9993 0.30577 3.2694 4.8689 3.6575-4.8689-1.9522-0.30577v-0.62331h5.1629v0.62331l-1.7406 0.30577-4.4337 5.9038 5.4216 7.9972 1.7876 0.31753v0.62331h-6.5036v-0.62331l1.9993-0.31753-4.1397-6.1155-4.5866 6.1155" fill="#171c26"/>
   <path transform="matrix(.86606,-.49998,.50002,.86599,0,0)" d="m46.602 87.638 1.9522 0.31754v0.62331h-5.1511v-0.62331l1.7406-0.31754 5.3628-7.1269-4.5748-6.7741-1.7758-0.30577v-0.62331h6.5036v0.62331l-1.9993 0.30577 3.2694 4.8689 3.6575-4.8689-1.9522-0.30577v-0.62331h5.1629v0.62331l-1.7406 0.30577-4.4337 5.9038 5.4216 7.9972 1.7876 0.31754v0.62331h-6.5036v-0.62331l1.9993-0.31754-4.1397-6.1155-4.5866 6.1155m18.829 0 2.0228 0.31754v0.62331h-6.3036v-0.62331l2.0228-0.31754v-13.901l-2.0228-0.30577v-0.62331h6.3036v0.62331l-2.0228 0.30577v13.901" fill="#171c26"/>
  </g>
  <path d="m211.86 188.64c-6.4485-6.2952-16.8-6.1707-23.095 0.27786s-6.1628 16.792 0.28571 23.087c5.2572 5.1322 13.099 6.0035 19.227 2.6539 0.40173 1.2032 1.1219 2.3833 2.1551 3.3919 0.7714 0.75305 1.6317 1.326 2.5245 1.7262-1.7277 2.4638-2.4904 4.5117-1.7653 5.2195 0.77237 0.75401 3.0249-0.21497 5.656-2.2538-0.89626 3.893 0.25891 8.2323 3.4189 11.317 1.3282 1.2966 2.8646 2.2368 4.4929 2.8153-1.4301 1.5777-2.6983 4.1437-2.2039 5.7652 1.9217 3.103 10.057-0.98095 9.8454 1.0977 2.1612 5.0751 5.478 9.898 13.74 5.0409l0.56802-0.35656c-3.0437 3.4537-4.7467 6.613-3.9006 7.439 0.65617 0.64059 2.6883-0.28675 5.1401-2.192-0.96167 4.9698 0.83269 10.299 5.0919 13.626 3.7409 2.9223 8.5104 3.6229 12.721 2.303 4.8337-0.88526 10.188 0.30837 14.575 3.7353 7.7424 6.0483 9.5289 16.721 3.9826 23.821 1.3258 1.4633 3.2982 0.42578 5.2286-2.1056 0.7649-0.97914 1.388-2.037 1.8779-3.1304l13.11 12.798-6.1007 6.2493c4.6059-1.4229 9.6799-0.94473 13.983 1.4453l19.399 18.938 2.7874-2.8552-19.407-18.946c-2.488-4.2421-3.0838-9.3009-1.7733-13.936l-6.1007 6.2493-14.67-14.321c0.73417-5.8486-1.7655-12.167-7.0716-16.312-1.2231-0.95548-2.5249-1.7331-3.8673-2.346s-2.729-1.0655-4.1254-1.3413-2.8075-0.37876-4.1927-0.32313c0.39521-2.9528 2.4994-6.0554 1.8556-8.2887-4.7539 5.8422-12.836 7.2085-18.181 3.0325-3.9102-3.0546-5.2898-8.2453-3.9816-13.17 3.049-3.4585 4.755-6.6362 3.9083-7.4629-0.83563-0.81576-3.8937 0.9192-7.225 3.9737 1.7503-3.2626-0.15057-6.8458-3.169-9.7066-2.1957-2.3884-4.1833-3.3311-6.162-3.4708 1.743-2.4556 2.5314-4.4874 1.8295-5.1726-0.57135-0.55777-2.0085-0.10174-3.8264 1.0555l-0.78437-0.45158c-0.69187-2.4855-2.0758-4.5688-5.1392-5.661-0.59275-1.7658-1.3868-3.1557-2.4663-4.1512-1.3879-1.28-3.2535-1.9029-5.7689-1.8461l-0.46705-0.5031c1.584-2.3316 2.2581-4.2515 1.5622-4.9309-0.72463-0.70739-2.7533 0.10342-5.1755 1.8904-0.4216-0.88252-1.0154-1.7296-1.7865-2.4823-1.0342-1.0096-2.2355-1.6938-3.4506-2.0648 3.2031-6.2094 2.1493-14.034-3.1079-19.166zm-6.9409 7.1099c2.5261 2.466 2.5749 6.5179 0.10882 9.044s-6.5179 2.5749-9.044 0.1088-2.5749-6.5179-0.10883-9.044 6.5179-2.5749 9.044-0.10881zm20.51 24.012c0.99326 0.94328 0.27447 4.0102 3.2799 5.7152 2.8888 1.6387 6.7536 2.8768 6.3962 5.0974-0.61294 0.54696-1.2358 1.1372-1.8545 1.771-0.42296 0.43326-0.8198 0.86297-1.2005 1.2941-2.6493 1.0775-6.9296 1.2933-9.8188-1.5272-3.7685-3.6789-2.6532-12.098 2.1691-12.616 0.47704-0.0513 0.79935 0.0481 1.0285 0.26582zm17.752 17.472c3.1052 2.9428 4.849 7.1476 0.0487 9.9905-5.4874 2.1572-7.3818-3.5584-9.1492-5.3346-2.3552-2.4276-6.1373 0.29544-6.285-3.0562-0.14923-3.3865 8.6483-4.2461 10.915-3.8522s3.104 0.95728 4.4706 2.2524z" fill="#040404" stroke="#040404" stroke-linecap="round" stroke-linejoin="round" stroke-width="1.919"/>
  <path d="m175.52 121.29c-8.4e-4 0.13451 7e-3 0.26999 0.0255 0.40774 0.28523 2.1784 2.6167 2.5749 4.6121 3.733 0.21699 7.5468 4.9729 11.388 7.8865 16.729-0.84188 3.9301-6.3289 7.0695-5.0326 9.1223 2.2129 2.6872 3.0922-2.2615 7.8992-0.16563 1.6962 0.99388 2.3154 2.2319 2.9431 3.491-1.312 3.0566-2.1022 7.0525-2.1022 11.428 0 4.9566 1.0269 9.4294 2.6628 12.601-9.0598 2.4561-15.735 10.731-15.735 20.563 0 11.765 9.5505 21.302 21.315 21.302s21.302-9.5378 21.302-21.302c0-9.6382-6.4039-17.791-15.187-20.423 1.6791-3.1788 2.7393-7.7097 2.7393-12.741 0-4.6049-0.882-8.7886-2.3188-11.9 0.56386-1.0931 1.2307-2.1506 2.7138-3.0195 4.807-2.0958 5.6864 2.8529 7.8992 0.16563 1.2964-2.0528-4.1907-5.1922-5.0326-9.1223 2.9136-5.3405 7.6695-9.1817 7.8865-16.729 1.9954-1.1581 4.3269-1.5546 4.6121-3.733 0.018-0.13774 0.0263-0.27326 0.0255-0.40773-0.0126-2.0154-2.0645-3.5944-3.4655-3.096 0.18882-1.9182-1.6161-3.5007-2.9813-5.16-3.0781-3.0585-4.2653-2.7138-6.09-3.5164v-10.511l1.1212-1.1212c0.29429-0.765 0.25423-1.6999 0-2.7392 1.2957-0.9724 1.2527-2.1701 0.91733-3.4145 0.3148-1.6301-1.1991-2.209-2.7647-2.7647-1.7447 0.08795-3.4917-0.0063-5.2364 1.4015-1.8607 0.22148-2.6665-0.34568-3.4527-0.93008v-10.562c1.371-2.8957 2.3158-5.7934 2.3188-8.6891h-2.9049v-25.749h-4.2172l-1e-5 25.749h-2.7265c3e-3 2.8957 0.94785 5.7934 2.3188 8.6892v10.562c-0.78624 0.5844-1.592 1.1516-3.4527 0.93009-1.7447-1.4078-3.4917-1.3135-5.2364-1.4015-1.5656 0.55565-3.0795 1.1347-2.7647 2.7647-0.33536 1.2444-0.37835 2.4421 0.91733 3.4145-0.25422 1.0393-0.29429 1.9742-1e-5 2.7392l1.1212 1.1212v10.511c-1.8247 0.80255-3.012 0.4578-6.09 3.5164-1.3652 1.6593-3.1702 3.2418-2.9813 5.16-1.4009-0.49842-3.4528 1.0805-3.4655 3.096zm8.0903 3.096c-9e-3 -0.94172 0.093-1.9208 0.31851-2.9304 1.8086-8.0974 12.143-8.5874 14.002-1.3378l1e-5 16.372c-1.5078 3.6503-2.2579 11.491-4.7395 9.7848-0.61701-0.56562-1.3126-0.61468-1.1339-6.485-3.1217-3.8419-8.3874-8.8114-8.4471-15.403zm8.6-14.129v-10.32c3.1385-1.0986 5.7104-2.9512 7.8737-4.7777 2.1623 1.8253 4.7248 3.68 7.861 4.7777v10.32c-2.8396 0.81028-5.9313 1.887-7.861 3.6056-1.9295-1.7205-5.0323-2.7948-7.8737-3.6056zm0.26755 88.943c0-4.1489 3.3681-7.517 7.517-7.517s7.517 3.3681 7.517 7.517-3.3681 7.5042-7.517 7.5042-7.517-3.3554-7.517-7.5042zm2.9813-31.826c0-6.4222 2.0801-11.632 4.6376-11.632s4.6249 5.21 4.6249 11.632c0 4.7194-1.1196 8.7856-2.7265 10.613-0.65875-0.0615-1.3255-0.10192-2.0003-0.10192-0.61001 0-1.2121 0.0388-1.8092 0.0892-1.6064-1.8316-2.7265-5.8884-2.7265-10.6zm6.7653-30.883 2e-5 -16.372c1.8592-7.2496 12.193-6.7596 14.002 1.3378 0.22548 1.0095 0.32703 1.9886 0.31852 2.9303-0.0596 6.5921-5.3254 11.562-8.4471 15.403 0.17871 5.8703-0.51693 5.9194-1.1339 6.485-2.4817 1.7058-3.2317-6.1346-4.7395-9.7848z" fill="#040404"/>
 </g>
</svg>
