<?xml version="1.0" encoding="utf-8"?>
<svg width="400" height="400" xmlns="http://www.w3.org/2000/svg">
  <g>
    <title>background</title>
    <rect fill="#ffffff" id="canvas_background" height="402" width="402" y="-1" x="-1"/>
    <g display="none" overflow="visible" y="0" x="0" height="100%" width="100%" id="canvasGrid">
      <rect fill="url(#gridpattern)" stroke-width="0" y="0" x="0" height="100%" width="100%"/>
    </g>
  </g>
  <g>
    <title>Layer 1</title>
    <path d="M 399 200 A 199 199 0 0 1 200 399 A 199 199 0 0 1 1 200 A 199 199 0 0 1 200 1 A 199 199 0 0 1 399 200 Z" id="svg_5" fill-opacity="null" stroke-opacity="null" stroke-width="1.5" stroke="#000" fill="#fff"/>
    <line stroke-linecap="null" id="svg_6" y2="400" x2="200" y1="1.999998" x1="201.99" fill-opacity="null" stroke-opacity="null" stroke-width="1.5" stroke-linejoin="null" stroke="#000" fill="none"/>
    <line stroke-linecap="null" id="svg_7" y2="200" x2="400" y1="200" x1="0" fill-opacity="null" stroke-opacity="null" stroke-width="1.5" stroke-linejoin="null" stroke="#000" fill="none"/>
    <line stroke-linecap="null" id="svg_8" y2="342" x2="59.5" y1="59.003526" x1="341.500008" fill-opacity="null" stroke-opacity="null" stroke-width="1.5" stroke-linejoin="null" stroke="#000" fill="none"/>
    <path d="M 202.653 0.931 C 202.653 0.931 243.843 0.415 277.786 15.28 C 313.76 31.034 342.124 60.772 342.124 60.772 C 342.124 60.772 201.689 198.794 201.689 198.794" style="stroke: black; stroke-width: 1px; fill: rgb(142, 85, 85);"/>
  </g>
  <path d="M 200.867 199.565 L 342.537 60.97 C 350.641 68.367 369.61 89.693 382.613 119.819 C 393.802 145.744 399.885 179.624 398.826 200.038" style="stroke: black; stroke-width: 1px; fill: rgb(142, 85, 85);"/>
  <path d="M 201.036 199.807 L 398.976 200.499 C 379.834 197.72 331.404 329.368 348.308 331.822 L 199.998 398.785" style="fill: rgb(216, 216, 216); stroke: black; stroke-width: 1px;"/>
</svg>